# xmcd
#
# Track frame offsets:
#	150
#	51525
#	112800
#	162825
#	174224
#
# Disc length: 2474 seconds
#
# Revision: 1
# Processed by: cddbd v1.5.1PL0 Copyright (c) Steve Scherf et al.
# Submitted via: CDex 1.50Beta5
#
DISCID=3509a805
DTITLE=フロントウイング - 魔女のお茶会 ポチの家出
DYEAR=1900
DGENRE=
TTITLE0=ポチの家出 #1
TTITLE1=ポチの家出 #2
TTITLE2=ポチの家出 #3
TTITLE3=Extensions
TTITLE4=Extensions カラオケVer.
EXTD=
EXTT0=
EXTT1=
EXTT2=
EXTT3=
EXTT4=
PLAYORDER=
